# xmcd
#
# Track frame offsets:
#	150
#	72070
#	96150
#	108627
#	123092
#	140725
#	162800
#	182337
#	190122
#	210862
#	239302
#	254685
#	269325
#
# Disc length: 3922 seconds
#
# Revision: 1
# Processed by: cddbd v1.5.1PL0 Copyright (c) Steve Scherf et al.
# Submitted via: CDex 1.50Beta5
#
DISCID=b20f500d
DTITLE=クラシック - TVコマーシャル
DYEAR=1900
DGENRE=Classical
TTITLE0=ボレロ
TTITLE1=ラプソディインブルー
TTITLE2=大地の歌
TTITLE3=ディベルティメントk.136
TTITLE4=第1番
TTITLE5=海
TTITLE6=協奏曲 イ短調
TTITLE7=展覧会の絵
TTITLE8=ディベルティメントk.334
TTITLE9=幻想交響曲
TTITLE10=ユモレスク
TTITLE11=水上の音楽
TTITLE12=メリーウィドウワルツ
EXTD=
EXTT0=
EXTT1=
EXTT2=
EXTT3=
EXTT4=
EXTT5=
EXTT6=
EXTT7=
EXTT8=
EXTT9=
EXTT10=
EXTT11=
EXTT12=
PLAYORDER=
